<?xml version="1.0" encoding="utf-8"?>
<!-- Generator: Adobe Illustrator 22.0.1, SVG Export Plug-In . SVG Version: 6.00 Build 0)  -->
<svg version="1.1"
	 id="svg8" inkscape:version="0.92.2 5c3e80d, 2017-08-06" sodipodi:docname="CameraButtonStand.svg" xmlns:cc="http://creativecommons.org/ns#" xmlns:dc="http://purl.org/dc/elements/1.1/" xmlns:inkscape="http://www.inkscape.org/namespaces/inkscape" xmlns:rdf="http://www.w3.org/1999/02/22-rdf-syntax-ns#" xmlns:sodipodi="http://sodipodi.sourceforge.net/DTD/sodipodi-0.dtd" xmlns:svg="http://www.w3.org/2000/svg"
	 xmlns="http://www.w3.org/2000/svg" xmlns:xlink="http://www.w3.org/1999/xlink" x="0px" y="0px" viewBox="0 0 595.3 841.9"
	 style="enable-background:new 0 0 595.3 841.9;" xml:space="preserve">
<style type="text/css">
	.st0{fill:none;stroke:#000000;stroke-width:0.3528;stroke-linecap:round;stroke-linejoin:round;}
	.st1{fill:none;stroke:#000000;stroke-width:1.3333;stroke-linecap:round;stroke-linejoin:round;}
	.st2{fill:none;stroke:#0000FF;stroke-width:0.3528;}
</style>
<sodipodi:namedview  bordercolor="#666666" borderopacity="1.0" id="base" inkscape:current-layer="layer1" inkscape:cx="241.00314" inkscape:cy="398.03499" inkscape:document-units="mm" inkscape:guide-bbox="true" inkscape:object-paths="false" inkscape:pageopacity="0.0" inkscape:pageshadow="2" inkscape:snap-bbox="true" inkscape:snap-bbox-midpoints="true" inkscape:snap-intersection-paths="true" inkscape:snap-smooth-nodes="true" inkscape:window-height="756" inkscape:window-maximized="1" inkscape:window-width="1276" inkscape:window-x="4" inkscape:window-y="22" inkscape:zoom="1.4133192" pagecolor="#ffffff" showgrid="true" showguides="true">
	<inkscape:grid  empspacing="4" id="grid4508" spacingx="1" spacingy="1" type="xygrid" units="mm"></inkscape:grid>
	<sodipodi:guide  id="guide4543" inkscape:locked="false" orientation="0,1" position="52,292"></sodipodi:guide>
	<sodipodi:guide  id="guide4545" inkscape:locked="false" orientation="0,1" position="28,244"></sodipodi:guide>
	<sodipodi:guide  id="guide4547" inkscape:locked="false" orientation="0,1" position="230,209"></sodipodi:guide>
	<sodipodi:guide  id="guide4549" inkscape:locked="false" orientation="1,0" position="222.06164,285.75001"></sodipodi:guide>
	<sodipodi:guide  id="guide4553" inkscape:locked="false" orientation="1,0" position="218.06164,264.75538"></sodipodi:guide>
	<sodipodi:guide  id="guide4594" inkscape:locked="false" orientation="1,0" position="178,217"></sodipodi:guide>
	<sodipodi:guide  id="guide4626" inkscape:locked="false" orientation="0,1" position="126,225"></sodipodi:guide>
	<sodipodi:guide  id="guide4630" inkscape:locked="false" orientation="1,0" position="202.06164,164.96909"></sodipodi:guide>
	<sodipodi:guide  id="guide4724" inkscape:locked="false" orientation="1,0" position="8,240"></sodipodi:guide>
	<sodipodi:guide  id="guide4771" inkscape:locked="false" orientation="0,1" position="32.8119,181.80122"></sodipodi:guide>
	<sodipodi:guide  id="guide4775" inkscape:locked="false" orientation="0,1" position="143,197.00001"></sodipodi:guide>
	<sodipodi:guide  id="guide4796" inkscape:locked="false" orientation="1,0" position="265,199"></sodipodi:guide>
	<sodipodi:guide  id="guide4808" inkscape:locked="false" orientation="1,0" position="295.99999,201.00002"></sodipodi:guide>
	<sodipodi:guide  id="guide4554" inkscape:locked="false" orientation="1,0" position="47.999999,240.00001"></sodipodi:guide>
</sodipodi:namedview>
<g id="layer1" inkscape:groupmode="layer" inkscape:label="Layer 1">
	<g id="g887" transform="rotate(-90,113.5,117.5)">
		<path id="rect4504" inkscape:connector-curvature="0" sodipodi:nodetypes="ccccccccccccccccc" class="st0" d="M-395.5,26.7l0-11.3
			h150.2v11.3l28.3,0l40.4,0l98.5,0V15.3l22.7,0v238.1v11.3H-78v-11.3l-167.2,0v11.3h-150.2L-395.5,26.7z"/>
		<path id="rect4510" inkscape:connector-curvature="0" sodipodi:nodetypes="ccccccccccccccc" class="st0" d="M-89.3,83.4l0,113.4
			H-78l0-113.4H-89.3z M-78,196.8l0,45.4h11.3l0-45.4H-78z M-89.3,196.8h-11.3l0,45.4h11.3L-89.3,196.8z"/>
		
			<rect id="rect4516" x="-95" y="55" transform="matrix(-2.535182e-06 -1 1 -2.535182e-06 -133.0002 -11.614)" class="st0" width="45.4" height="11.3"/>
		
			<rect id="rect4520" x="-117.7" y="55" transform="matrix(-2.535182e-06 -1 1 -2.535182e-06 -155.6774 -34.2912)" class="st0" width="45.4" height="11.3"/>
	</g>
	<g id="g4749" transform="rotate(90,164.65615,-64.656146)">
		<path id="rect4506" inkscape:connector-curvature="0" sodipodi:nodetypes="ccccccccccccccccccccc" class="st1" d="M303-160.8v11.3
			h-59.5v113.4V77.3H303v11.3h42.5V77.3l11.3,0V66V20.6h11.3v-56.7v-56.7h-11.3v-45.4v-11.3l-11.3,0v-11.3H303z"/>
		
			<rect id="rect4578" x="294.5" y="-53.1" transform="matrix(2.535182e-06 1 -1 2.535182e-06 275.4535 -347.5802)" class="st0" width="34" height="34"/>
	</g>
	<g id="g4759" transform="rotate(-90,202.24272,206.24278)">
		<path id="path4564" inkscape:connector-curvature="0" sodipodi:nodetypes="cccccccccccccccccccccc" class="st1" d="M144.9,15.3
			v11.3h-11.3v113.4v113.4h11.3v11.3h42.5v-11.3l59.5,0v-11.3h11.3v-45.4h-11.3V83.4h11.3V38h-11.3V26.7l-59.5,0V15.3H144.9z"/>
		<g id="g4660" transform="translate(133.42376,-162.88447)">
			
				<rect id="rect4596" x="66" y="273.9" transform="matrix(-2.535182e-06 -1 1 -2.535182e-06 -215.6817 351.9457)" class="st0" width="4.3" height="19.8"/>
			
				<rect id="rect4598" x="66" y="312.2" transform="matrix(-2.535182e-06 -1 1 -2.535182e-06 -253.9494 390.2135)" class="st0" width="4.3" height="19.8"/>
		</g>
	</g>
	<g id="g881" transform="rotate(-180,159.06164,83)">
		<path id="path4562" inkscape:connector-curvature="0" sodipodi:nodetypes="ccccccccccccccccccccccccccccc" class="st0" d="
			M34.5-100.5h11.3l0,45.4H34.5l0,11.3h11.3v167.2H34.7v19.8v8.5H23.1L-178.3-21.1v-34v-102v-102v-34L23.1-466.1h11.5v8.5v19.8h11.2
			v167.2H34.5l0,11.3h11.3l0,45.4H34.5v56.7V-100.5z"/>
		<path id="path4570" inkscape:connector-curvature="0" class="st0" d="M-102.1-157.1c0,13.3-10.8,24.1-24.1,24.1c0,0,0,0,0,0
			c-13.3,0-24.1-10.8-24.1-24.1c0-13.3,10.8-24.1,24.1-24.1C-112.9-181.2-102.1-170.5-102.1-157.1
			C-102.1-157.1-102.1-157.1-102.1-157.1z"/>
		<path id="path4584" inkscape:connector-curvature="0" class="st0" d="M-0.6-157.1c0,5.7-4.6,10.3-10.3,10.3s-10.3-4.6-10.3-10.3
			c0-5.7,4.6-10.3,10.3-10.3S-0.6-162.8-0.6-157.1z"/>
		<path id="path4765" inkscape:connector-curvature="0" class="st2" d="M-178.1-43.8H34.5"/>
		<path id="rect4790" inkscape:connector-curvature="0" class="st0" d="M-19.5-43.8H23v11.3h-42.5V-43.8z"/>
		<path id="rect4792" inkscape:connector-curvature="0" class="st0" d="M-67.7-32.4h42.5v11.3h-42.5V-32.4z"/>
		<path id="path4821" inkscape:connector-curvature="0" class="st2" d="M-178.3-270.5H34.3"/>
		<path id="rect4823" inkscape:connector-curvature="0" class="st0" d="M-19.5-270.5H23v-11.3h-42.5V-270.5z"/>
		<path id="rect4825" inkscape:connector-curvature="0" class="st0" d="M-67.7-281.9h42.5v-11.3h-42.5V-281.9z"/>
	</g>
</g>
<line class="st0" x1="159.1" y1="659.4" x2="408.5" y2="658.5"/>
<line class="st0" x1="408.5" y1="658.5" x2="408.6" y2="639.5"/>
<line class="st0" x1="158.5" y1="659.5" x2="158.6" y2="640.5"/>
<line class="st0" x1="408.6" y1="639.5" x2="422.9" y2="639.5"/>
<line class="st0" x1="144.6" y1="640.5" x2="158.9" y2="640.5"/>
<line class="st0" x1="144.6" y1="640.5" x2="144.3" y2="658.2"/>
<line class="st0" x1="422.9" y1="639.5" x2="422.6" y2="657.2"/>
<line class="st0" x1="144.3" y1="658.2" x2="79.5" y2="799.1"/>
<line class="st0" x1="422.6" y1="657.2" x2="485.5" y2="797.4"/>
<line class="st0" x1="79.5" y1="799.1" x2="485.5" y2="797.4"/>
</svg>
